<svg fill="none" height="13" viewBox="0 0 8 13" width="8" xmlns="http://www.w3.org/2000/svg"><path d="m7.12 2.20915-4.3 4.29 4.3 4.28995c.09373.093.16812.2036.21889.3255.05077.1218.07691.2525.07691.3845 0 .1321-.02614.2628-.07691.3846-.05077.1219-.12516.2325-.21889.3254-.09296.0938-.20356.1682-.32542.2189-.12186.0508-.25257.0769-.38458.0769s-.26272-.0261-.38458-.0769c-.12186-.0507-.23246-.1251-.32542-.2189l-4.29-4.29995-1.41-1.41 1.41-1.41 4.29-4.300002c.1883-.188304.4437-.294092.71-.294092s.52169.105788.71.294092c.1883.188304.29409.443702.29409.710002s-.10579.52169-.29409.71z" fill="#000"/></svg>