<svg fill="none" height="13" viewBox="0 0 13 13" width="13" xmlns="http://www.w3.org/2000/svg"><path d="m7.4158 6.00409 4.3-4.29c.1883-.1883.2941-.4437.2941-.71s-.1058-.521695-.2941-.709998c-.1883-.188304-.4437-.294092-.71-.294092s-.5217.105788-.71.294092l-4.29 4.299998-4.29-4.299998c-.18831-.188304-.4437-.294092-.71-.294092-.266303 0-.521698.105788-.710002.294092-.188303.188303-.2940914.443698-.2940914.709998s.1057884.5217.2940914.71l4.300002 4.29-4.300002 4.29001c-.093728.093-.168122.2036-.2188908.3254-.0507687.1219-.0769072.2526-.0769072.3846s.0261385.2627.0769072.3846c.0507688.1218.1251628.2324.2188908.3254.092963.0937.203564.1681.325424.2189.121859.0508.252564.0769.384578.0769.13201 0 .26272-.0261.38458-.0769.12185-.0508.23246-.1252.32542-.2189l4.29-4.30001 4.29 4.30001c.093.0937.2036.1681.3254.2189.1219.0508.2526.0769.3846.0769s.2627-.0261.3846-.0769c.1218-.0508.2324-.1252.3254-.2189.0937-.093.1681-.2036.2189-.3254.0508-.1219.0769-.2526.0769-.3846s-.0261-.2627-.0769-.3846c-.0508-.1218-.1252-.2324-.2189-.3254z" fill="#000"/></svg>