<svg width="0" height="0" class="hidden"><symbol xmlns="http://www.w3.org/2000/svg" viewBox="0 0 107.9 32" id="logo"><path class="st0" fill="currentColor" d="M16,0C7.2,0,0,7.2,0,16c0,8.8,7.2,16,16,16c8.8,0,16-7.2,16-16C32,7.2,24.8,0,16,0z M23.3,23.1	c-0.3,0.5-0.9,0.6-1.4,0.3c-3.8-2.3-8.5-2.8-14.1-1.5c-0.5,0.1-1.1-0.2-1.2-0.8c-0.1-0.5,0.2-1.1,0.8-1.2c6.1-1.4,11.3-0.8,15.5,1.8	C23.5,22,23.6,22.6,23.3,23.1z M25.3,18.7c-0.4,0.6-1.1,0.8-1.7,0.4c-4.3-2.6-10.9-3.4-15.9-1.9c-0.7,0.2-1.4-0.2-1.6-0.8	c-0.2-0.7,0.2-1.4,0.8-1.6c5.8-1.8,13-0.9,18,2.1C25.5,17.4,25.7,18.1,25.3,18.7z M25.5,14.2c-5.2-3.1-13.7-3.3-18.6-1.8	c-0.8,0.2-1.6-0.2-1.9-1c-0.2-0.8,0.2-1.6,1-1.9c5.7-1.7,15-1.4,21,2.1c0.7,0.4,0.9,1.3,0.5,2.1C27.1,14.4,26.2,14.6,25.5,14.2z"/><path class="st0" fill="currentColor" d="M43.5,14.8c-2.8-0.7-3.3-1.1-3.3-2.1c0-0.9,0.9-1.5,2.1-1.5c1.2,0,2.5,0.5,3.8,1.4c0,0,0.1,0,0.1,0	c0,0,0.1,0,0.1-0.1l1.3-1.9c0.1-0.1,0-0.2,0-0.2c-1.5-1.2-3.3-1.8-5.3-1.8c-3,0-5.1,1.8-5.1,4.4c0,2.7,1.8,3.7,4.9,4.5	c2.6,0.6,3.1,1.1,3.1,2c0,1-0.9,1.6-2.4,1.6c-1.6,0-2.9-0.5-4.4-1.8c0,0-0.1,0-0.1,0c0,0-0.1,0-0.1,0.1L36.9,21	c-0.1,0.1-0.1,0.2,0,0.3c1.7,1.5,3.8,2.3,6.1,2.3c3.2,0,5.3-1.8,5.3-4.5C48.3,16.9,46.9,15.6,43.5,14.8z"/><path class="st0" fill="currentColor" d="M55.5,12c-1.4,0-2.5,0.5-3.5,1.7v-1.3c0-0.1-0.1-0.2-0.2-0.2h-2.5c-0.1,0-0.2,0.1-0.2,0.2v14.1	c0,0.1,0.1,0.2,0.2,0.2h2.5c0.1,0,0.2-0.1,0.2-0.2v-4.4c0.9,1.1,2.1,1.6,3.5,1.6c2.6,0,5.2-2,5.2-5.8C60.8,14,58.1,12,55.5,12z M57.9,17.9c0,1.9-1.2,3.3-2.9,3.3c-1.7,0-3-1.4-3-3.3c0-1.9,1.3-3.3,3-3.3C56.7,14.6,57.9,15.9,57.9,17.9z"/><path class="st0" fill="currentColor" d="M67.5,12c-3.3,0-5.9,2.6-5.9,5.8c0,3.2,2.6,5.8,5.9,5.8c3.3,0,6-2.6,6-5.8C73.4,14.6,70.8,12,67.5,12z M67.5,21.2c-1.8,0-3.1-1.4-3.1-3.3c0-1.9,1.3-3.3,3.1-3.3c1.8,0,3.1,1.4,3.1,3.3C70.6,19.8,69.3,21.2,67.5,21.2z"/><path class="st0" fill="currentColor" d="M80.5,12.3h-2.7V9.5c0-0.1-0.1-0.2-0.2-0.2h-2.5C75,9.3,75,9.4,75,9.5v2.8h-1.2c-0.1,0-0.2,0.1-0.2,0.2v2.1	c0,0.1,0.1,0.2,0.2,0.2H75v5.5c0,2.2,1.1,3.4,3.3,3.4c0.9,0,1.6-0.2,2.3-0.6c0.1,0,0.1-0.1,0.1-0.2v-2c0-0.1,0-0.1-0.1-0.2	c-0.1,0-0.1,0-0.2,0c-0.5,0.2-0.9,0.4-1.5,0.4c-0.8,0-1.1-0.4-1.1-1.2v-5.1h2.7c0.1,0,0.2-0.1,0.2-0.2v-2.1	C80.7,12.4,80.6,12.3,80.5,12.3z"/><path class="st0" fill="currentColor" d="M90,12.3v-0.3c0-1,0.4-1.5,1.3-1.5c0.5,0,0.9,0.1,1.4,0.3c0.1,0,0.1,0,0.2,0c0,0,0.1-0.1,0.1-0.1V8.5	c0-0.1-0.1-0.2-0.1-0.2C92.3,8.2,91.6,8,90.7,8c-2.3,0-3.5,1.3-3.5,3.7v0.5H86c-0.1,0-0.2,0.1-0.2,0.2v2.1c0,0.1,0.1,0.2,0.2,0.2	h1.2v8.5c0,0.1,0.1,0.2,0.2,0.2h2.5c0.1,0,0.2-0.1,0.2-0.2v-8.5h2.3l3.5,8.5c-0.4,0.9-0.8,1.1-1.3,1.1c-0.4,0-0.9-0.1-1.4-0.4	c0,0-0.1,0-0.1,0c0,0-0.1,0.1-0.1,0.1l-0.8,1.8c0,0.1,0,0.2,0.1,0.2c0.9,0.5,1.7,0.7,2.6,0.7c1.8,0,2.8-0.9,3.7-3.1l4.3-11.1	c0-0.1,0-0.1,0-0.2c0,0-0.1-0.1-0.1-0.1h-2.6c-0.1,0-0.1,0-0.2,0.1l-2.6,7.5l-2.9-7.5c0-0.1-0.1-0.1-0.2-0.1H90z"/><path class="st0" fill="currentColor" d="M84.5,12.3H82c-0.1,0-0.2,0.1-0.2,0.2v10.8c0,0.1,0.1,0.2,0.2,0.2h2.5c0.1,0,0.2-0.1,0.2-0.2V12.5	C84.7,12.4,84.6,12.3,84.5,12.3z"/><path class="st0" fill="currentColor" d="M83.3,7.4c-1,0-1.8,0.8-1.8,1.8c0,1,0.8,1.8,1.8,1.8c1,0,1.8-0.8,1.8-1.8C85,8.2,84.3,7.4,83.3,7.4z"/><path class="st0" fill="currentColor" d="M104.9,15.7c-1,0-1.7-0.8-1.7-1.7c0-1,0.8-1.7,1.8-1.7c1,0,1.7,0.8,1.7,1.7C106.7,14.9,105.9,15.7,104.9,15.7z M105,12.4c-0.9,0-1.6,0.7-1.6,1.6c0,0.9,0.7,1.6,1.6,1.6c0.9,0,1.6-0.7,1.6-1.6C106.5,13.1,105.8,12.4,105,12.4z M105.3,14.2	l0.5,0.7h-0.4l-0.4-0.6h-0.4v0.6h-0.3V13h0.8c0.4,0,0.7,0.2,0.7,0.6C105.8,13.9,105.6,14.1,105.3,14.2z M105,13.3h-0.5v0.6h0.5	c0.2,0,0.4-0.1,0.4-0.3C105.4,13.4,105.3,13.3,105,13.3z"/></symbol><symbol xmlns="http://www.w3.org/2000/svg" viewBox="0 0 36 23" id="myRect"><rect fill="currentColor" width="6" height="23"/><rect fill="currentColor" x="10" y="8" width="6" height="15"/><rect fill="currentColor" x="20" y="13" width="6" height="10"/><rect fill="currentColor" x="30" y="4" width="6" height="19"/></symbol><symbol xmlns="http://www.w3.org/2000/svg" viewBox="0 0 960 560" id="arrow-down"><g id="Rounded_Rectangle_33_copy_4_1_"><path d="M480,344.181L268.869,131.889c-15.756-15.859-41.3-15.859-57.054,0c-15.754,15.857-15.754,41.57,0,57.431l237.632,238.937 c8.395,8.451,19.562,12.254,30.553,11.698c10.993,0.556,22.159-3.247,30.555-11.698l237.631-238.937 c15.756-15.86,15.756-41.571,0-57.431s-41.299-15.859-57.051,0L480,344.181z"/></g></symbol></svg>