<svg fill="none" height="32" viewBox="0 0 32 32" width="32" xmlns="http://www.w3.org/2000/svg"><circle cx="16" cy="16" fill="#f573a0" r="16"/><g fill="#fff"><path d="m9.70711 8.29289c-.39053-.39052-1.02369-.39052-1.41422 0-.39052.39053-.39052 1.02369 0 1.41422zm12.58579 15.41421c.3905.3905 1.0237.3905 1.4142 0s.3905-1.0237 0-1.4142zm-14.00001-13.99999 14.00001 13.99999 1.4142-1.4142-13.99999-14.00001z"/><path d="m8.29289 22.2929c-.39052.3905-.39052 1.0237 0 1.4142.39053.3905 1.02369.3905 1.41422 0zm15.41421-12.58579c.3905-.39053.3905-1.02369 0-1.41422-.3905-.39052-1.0237-.39052-1.4142 0zm-13.99999 13.99999 13.99999-13.99999-1.4142-1.41422-14.00001 14.00001z"/></g></svg>